<svg xmlns="http://www.w3.org/2000/svg" xmlns:xlink="http://www.w3.org/1999/xlink" id="Layer_1" x="0" y="0" version="1.1" viewBox="0 0 120 120" xml:space="preserve"><style>.st0{fill:#f0f0f0}.st2{fill:none;stroke:#37474f;stroke-width:2;stroke-linecap:square}.st3{fill:#37474f}</style><g id="Web_Services"><g id="back_x5F_circle_54_"><circle cx="60" cy="60" r="50" class="st0"/><circle cx="60" cy="60" r="50" fill="none" stroke="#777" stroke-dasharray=".9971,3.9883" stroke-linecap="square" stroke-width="2"/></g><g id="pic_45_"><path d="M60 102.2v-53M38 80l17-5V50M82 80l-17-5V50" class="st2"/><circle cx="38" cy="80" r="3" class="st0"/><path d="M38 78c1.1 0 2 .9 2 2s-.9 2-2 2-2-.9-2-2 .9-2 2-2m0-2c-2.2 0-4 1.8-4 4s1.8 4 4 4 4-1.8 4-4-1.8-4-4-4z" class="st3"/><circle cx="82" cy="80" r="3" class="st0"/><path d="M82 78c1.1 0 2 .9 2 2s-.9 2-2 2-2-.9-2-2 .9-2 2-2m0-2c-2.2 0-4 1.8-4 4s1.8 4 4 4 4-1.8 4-4-1.8-4-4-4z" class="st3"/><circle cx="60" cy="82" r="3" class="st0"/><path d="M60 80c1.1 0 2 .9 2 2s-.9 2-2 2-2-.9-2-2 .9-2 2-2m0-2c-2.2 0-4 1.8-4 4s1.8 4 4 4 4-1.8 4-4-1.8-4-4-4z" class="st3"/><path fill="#f9a825" stroke="#212121" stroke-linecap="round" stroke-linejoin="round" stroke-width="1.5" d="M60 104.1l-12-3.4V85.3l12-3.4z"/><path fill="#fbc02d" stroke="#212121" stroke-linecap="round" stroke-linejoin="round" stroke-width="1.5" d="M72 100.7l-12 3.4V81.9l12 3.4z"/><path fill="#4caf50" stroke="#212121" stroke-linecap="round" stroke-linejoin="round" stroke-width="1.5" d="M27 92l-11-3V75l11-3z"/><path fill="#81c784" stroke="#212121" stroke-linecap="round" stroke-linejoin="round" stroke-width="1.5" d="M38 89l-11 3V72l11 3z"/><path fill="#886fa8" stroke="#212121" stroke-linecap="round" stroke-linejoin="round" stroke-width="1.5" d="M93 92l-11-3V75l11-3z"/><path fill="#9c80ba" stroke="#212121" stroke-linecap="round" stroke-linejoin="round" stroke-width="1.5" d="M104 89l-11 3V72l11 3z"/><path id="cloud_8_" fill="#81d4fa" d="M99.6 48.8c0-7.8-6.4-14.2-14.2-14.2h-.3c-2-10.3-11.1-18.1-22-18.1-9.5 0-17.5 5.9-20.8 14.2-1.3-.7-2.7-1.1-4.3-1.1-4.9 0-8.8 3.9-8.8 8.8 0 1.1.2 2.2.6 3.2-.5-.1-1-.1-1.4-.1-6 0-10.8 4.8-10.8 10.8 0 6 4.8 10.8 10.8 10.8h57.2c7.8-.2 14-6.5 14-14.3z"/><path id="cloud_x5F_shadow_3_" fill="#b3e5fc" d="M85.4 34.6h-.3c-1.6-8.4-8-15.2-16.2-17.4-.1 0-18.4-1.3-16.3 13.5 2.1 15 14.3 12.9 14.3 12.9s-8 5.4-5 11.4c3.6 7.2 16.6 7.9 16.7 7.9h7c7.7-.1 14-6.4 14-14.2 0-7.7-6.4-14.1-14.2-14.1z"/><path id="cloud_7_" fill="none" stroke="#212121" stroke-width="1.5" d="M99.6 48.8c0-7.8-6.4-14.2-14.2-14.2h-.3c-2-10.3-11.1-18.1-22-18.1-9.5 0-17.5 5.9-20.8 14.2-1.3-.7-2.7-1.1-4.3-1.1-4.9 0-8.8 3.9-8.8 8.8 0 1.1.2 2.2.6 3.2-.5-.1-1-.1-1.4-.1-6 0-10.8 4.8-10.8 10.8 0 6 4.8 10.8 10.8 10.8h.2v0h56.8s0 0 0 0 0 0 0 0h.2v0c7.8-.2 14-6.5 14-14.3z"/><path id="gear_x5F_big_7_" fill="#ff8a65" d="M71.6 45.4l.2-1c0-.1.1-.3.3-.4l2.7-1.2c.1-.1.2-.2.2-.4l-.3-2.7c0-.1-.2-.3-.3-.3l-2.9-.4c-.1 0-.3-.1-.4-.3l-.5-1.1c-.1-.1 0-.3 0-.5l1.7-2.5c.1-.1.1-.3 0-.4l-1.7-2.1c-.1-.1-.3-.1-.4-.1l-2.6 1.3c-.1.1-.3 0-.4 0l-1.1-.8c-.1-.1-.2-.3-.2-.4l.1-3c0-.1-.1-.3-.2-.4 0 0-1.4-.5-2.2-.7-.2 0-.2-.1-.2-.1-.1 0-.3 0-.4.2l-1.5 2.5c-.1.1-.3.2-.4.2h-1.5c-.1 0-.3-.1-.4-.2l-1.5-2.5c-.1-.1-.3-.2-.4-.2l-2.4.7c-.1 0-.2.2-.2.3l.1 2.9c0 .1-.1.3-.2.4l-1.3.8c-.1.1-.3.1-.4 0l-2.6-1.3c-.1-.1-.3 0-.4.1l-1.7 2c-.1.1-.1.3 0 .4l1.6 2.5c.1.1.1.3 0 .5l-.6 1.3c-.1.1-.2.3-.4.3l-2.9.3h-.3c-.2 1-.4 2.9-.4 2.9 0 .1.1.3.2.4l2.7 1.2c.1.1.3.2.3.4l.2 1.2c0 .1 0 .3-.1.4L46 47.7c-.1.1-.2.3-.1.4l1.2 2.5c.1.1.2.2.4.2l2.9-.5c.1 0 .3 0 .4.2l.7.8c.1.1.1.3.1.4l-.9 2.8c0 .1 0 .3.1.4l2.4 1.5c.1.1.3 0 .4 0l2.2-2c.1-.1.3-.1.4-.1 0 0 .5.2.9.3h.1c.1 0 .2.1.2.3l.8 2.8c0 .1.2.3.3.3h2.9c.1 0 .3-.1.3-.3l.8-2.9c0-.1.2-.3.3-.3l.8-.2c.1 0 .3 0 .4.1l2.2 2c.1.1.3.1.4 0l2.4-1.5c.1-.1.2-.3.1-.4l-.9-2.8c0-.1 0-.3.1-.4l.6-.6c.1-.1.3-.2.4-.2l2.9.5c.1 0 .3-.1.4-.2l1.2-2.6c.1-.1 0-.3-.1-.4l-2.2-1.9c.1-.2.1-.4.1-.5zm-4.3-.7c-1 4.1-5 6.6-9.1 5.6s-6.6-5-5.6-9.1 5-6.6 9.1-5.6 6.6 5.1 5.6 9.1z"/><g><defs><path id="gear_x5F_big_9_" d="M71.6 45.4l.2-1c0-.1.1-.3.3-.4l2.7-1.2c.1-.1.2-.2.2-.4l-.3-2.7c0-.1-.2-.3-.3-.3l-2.9-.4c-.1 0-.3-.1-.4-.3l-.5-1.1c-.1-.1 0-.3 0-.5l1.7-2.5c.1-.1.1-.3 0-.4l-1.7-2.1c-.1-.1-.3-.1-.4-.1l-2.6 1.3c-.1.1-.3 0-.4 0l-1.1-.8c-.1-.1-.2-.3-.2-.4l.1-3c0-.1-.1-.3-.2-.4 0 0-1.4-.5-2.2-.7-.2 0-.2-.1-.2-.1-.1 0-.3 0-.4.2l-1.5 2.5c-.1.1-.3.2-.4.2h-1.5c-.1 0-.3-.1-.4-.2l-1.5-2.5c-.1-.1-.3-.2-.4-.2l-2.4.7c-.1 0-.2.2-.2.3l.1 2.9c0 .1-.1.3-.2.4l-1.3.8c-.1.1-.3.1-.4 0l-2.6-1.3c-.1-.1-.3 0-.4.1l-1.7 2c-.1.1-.1.3 0 .4l1.6 2.5c.1.1.1.3 0 .5l-.6 1.3c-.1.1-.2.3-.4.3l-2.9.3h-.3c-.2 1-.4 2.9-.4 2.9 0 .1.1.3.2.4l2.7 1.2c.1.1.3.2.3.4l.2 1.2c0 .1 0 .3-.1.4L46 47.7c-.1.1-.2.3-.1.4l1.2 2.5c.1.1.2.2.4.2l2.9-.5c.1 0 .3 0 .4.2l.7.8c.1.1.1.3.1.4l-.9 2.8c0 .1 0 .3.1.4l2.4 1.5c.1.1.3 0 .4 0l2.2-2c.1-.1.3-.1.4-.1 0 0 .5.2.9.3h.1c.1 0 .2.1.2.3l.8 2.8c0 .1.2.3.3.3h2.9c.1 0 .3-.1.3-.3l.8-2.9c0-.1.2-.3.3-.3l.8-.2c.1 0 .3 0 .4.1l2.2 2c.1.1.3.1.4 0l2.4-1.5c.1-.1.2-.3.1-.4l-.9-2.8c0-.1 0-.3.1-.4l.6-.6c.1-.1.3-.2.4-.2l2.9.5c.1 0 .3-.1.4-.2l1.2-2.6c.1-.1 0-.3-.1-.4l-2.2-1.9c.1-.2.1-.4.1-.5zm-4.3-.7c-1 4.1-5 6.6-9.1 5.6s-6.6-5-5.6-9.1 5-6.6 9.1-5.6 6.6 5.1 5.6 9.1z"/></defs><clipPath id="gear_x5F_big_1_"><use overflow="visible" xlink:href="#gear_x5F_big_9_"/></clipPath><circle cx="60" cy="42.9" r="10" fill="#ff5722" clip-path="url(#gear_x5F_big_1_)"/></g><path id="gear_x5F_big_2_" fill="none" stroke="#212121" stroke-miterlimit="10" stroke-width="1.5" d="M71.6 45.4l.2-1c0-.1.1-.3.3-.4l2.7-1.2c.1-.1.2-.2.2-.4l-.3-2.7c0-.1-.2-.3-.3-.3l-2.9-.4c-.1 0-.3-.1-.4-.3l-.5-1.1c-.1-.1 0-.3 0-.5l1.7-2.5c.1-.1.1-.3 0-.4l-1.7-2.1c-.1-.1-.3-.1-.4-.1l-2.6 1.3c-.1.1-.3 0-.4 0l-1.1-.8c-.1-.1-.2-.3-.2-.4l.1-3c0-.1-.1-.3-.2-.4 0 0-1.4-.5-2.2-.7-.2 0-.2-.1-.2-.1-.1 0-.3 0-.4.2l-1.5 2.5c-.1.1-.3.2-.4.2h-1.5c-.1 0-.3-.1-.4-.2l-1.5-2.5c-.1-.1-.3-.2-.4-.2l-2.4.7c-.1 0-.2.2-.2.3l.1 2.9c0 .1-.1.3-.2.4l-1.3.8c-.1.1-.3.1-.4 0l-2.6-1.3c-.1-.1-.3 0-.4.1l-1.7 2c-.1.1-.1.3 0 .4l1.6 2.5c.1.1.1.3 0 .5l-.6 1.3c-.1.1-.2.3-.4.3l-2.9.3h-.3 0c-.2 1-.4 2.9-.4 2.9 0 .1.1.3.2.4l2.7 1.2c.1.1.3.2.3.4l.2 1.2c0 .1 0 .3-.1.4L46 47.7c-.1.1-.2.3-.1.4l1.2 2.5c.1.1.2.2.4.2l2.9-.5c.1 0 .3 0 .4.2l.7.8c.1.1.1.3.1.4l-.9 2.8c0 .1 0 .3.1.4l2.4 1.5c.1.1.3 0 .4 0l2.2-2c.1-.1.3-.1.4-.1 0 0 .5.2.9.3h.1c.1 0 .2.1.2.3l.8 2.8c0 .1.2.3.3.3h2.9c.1 0 .3-.1.3-.3l.8-2.9c0-.1.2-.3.3-.3l.8-.2c.1 0 .3 0 .4.1l2.2 2c.1.1.3.1.4 0l2.4-1.5c.1-.1.2-.3.1-.4l-.9-2.8c0-.1 0-.3.1-.4l.6-.6c.1-.1.3-.2.4-.2l2.9.5c.1 0 .3-.1.4-.2l1.2-2.6c.1-.1 0-.3-.1-.4l-2.2-1.9c.1-.2.1-.4.1-.5h0zm-4.3-.7c-1 4.1-5 6.6-9.1 5.6s-6.6-5-5.6-9.1 5-6.6 9.1-5.6 6.6 5.1 5.6 9.1z"/></g></g></svg>